REM DIRINDEX 1\2,1\4,1\5,1\6,1\7,1\3\8,1\3\9,1\3\10
REM DIRNAME cjc113,folder01,folder02,folder03,folder04,folder05,folder06,folder07,folder08,folder09
TITLE ""
FILE "DB4500_5th_1A_07.mp3" MP3
  TRACK 01 AUDIO
    TITLE "0:"
    INDEX 01 00:00:00
  TRACK 02 AUDIO
    TITLE "8:cjc113_0313"
    INDEX 01 00:00:01
  TRACK 03 AUDIO
    TITLE "0:"
    INDEX 01 00:01:15
  TRACK 04 AUDIO
    TITLE "9:cjc113_0314"
    INDEX 01 00:01:36
  TRACK 05 AUDIO
    TITLE "0:"
    INDEX 01 00:02:57
  TRACK 06 AUDIO
    TITLE "10:cjc113_0315"
    INDEX 01 00:03:06
  TRACK 07 AUDIO
    TITLE "0:"
    INDEX 01 00:06:65
  TRACK 08 AUDIO
    TITLE "8:cjc113_0316"
    INDEX 01 00:07:35
  TRACK 09 AUDIO
    TITLE "0:"
    INDEX 01 00:08:42
  TRACK 10 AUDIO
    TITLE "9:cjc113_0317"
    INDEX 01 00:08:64
  TRACK 11 AUDIO
    TITLE "0:"
    INDEX 01 00:09:47
  TRACK 12 AUDIO
    TITLE "10:cjc113_0318"
    INDEX 01 00:09:71
  TRACK 13 AUDIO
    TITLE "0:"
    INDEX 01 00:12:52
  TRACK 14 AUDIO
    TITLE "8:cjc113_0319"
    INDEX 01 00:13:20
  TRACK 15 AUDIO
    TITLE "0:"
    INDEX 01 00:14:43
  TRACK 16 AUDIO
    TITLE "9:cjc113_0320"
    INDEX 01 00:14:66
  TRACK 17 AUDIO
    TITLE "0:"
    INDEX 01 00:16:18
  TRACK 18 AUDIO
    TITLE "10:cjc113_0321"
    INDEX 01 00:16:40
  TRACK 19 AUDIO
    TITLE "0:"
    INDEX 01 00:20:04
  TRACK 20 AUDIO
    TITLE "8:cjc113_0322"
    INDEX 01 00:20:53
  TRACK 21 AUDIO
    TITLE "0:"
    INDEX 01 00:21:57
  TRACK 22 AUDIO
    TITLE "9:cjc113_0323"
    INDEX 01 00:22:03
  TRACK 23 AUDIO
    TITLE "0:"
    INDEX 01 00:22:72
  TRACK 24 AUDIO
    TITLE "10:cjc113_0324"
    INDEX 01 00:23:16
  TRACK 25 AUDIO
    TITLE "0:"
    INDEX 01 00:26:05
  TRACK 26 AUDIO
    TITLE "10:cjc113_0325"
    INDEX 01 00:26:32
  TRACK 27 AUDIO
    TITLE "0:"
    INDEX 01 00:28:31
  TRACK 28 AUDIO
    TITLE "8:cjc113_0326"
    INDEX 01 00:29:03
  TRACK 29 AUDIO
    TITLE "0:"
    INDEX 01 00:30:14
  TRACK 30 AUDIO
    TITLE "9:cjc113_0327"
    INDEX 01 00:30:32
  TRACK 31 AUDIO
    TITLE "0:"
    INDEX 01 00:31:29
  TRACK 32 AUDIO
    TITLE "10:cjc113_0328"
    INDEX 01 00:31:51
  TRACK 33 AUDIO
    TITLE "0:"
    INDEX 01 00:35:04
  TRACK 34 AUDIO
    TITLE "8:cjc113_0329"
    INDEX 01 00:35:63
  TRACK 35 AUDIO
    TITLE "0:"
    INDEX 01 00:36:62
  TRACK 36 AUDIO
    TITLE "9:cjc113_0330"
    INDEX 01 00:37:08
  TRACK 37 AUDIO
    TITLE "0:"
    INDEX 01 00:39:45
  TRACK 38 AUDIO
    TITLE "10:cjc113_0331"
    INDEX 01 00:39:70
  TRACK 39 AUDIO
    TITLE "0:"
    INDEX 01 00:42:51
  TRACK 40 AUDIO
    TITLE "8:cjc113_0332"
    INDEX 01 00:43:21
  TRACK 41 AUDIO
    TITLE "0:"
    INDEX 01 00:44:32
  TRACK 42 AUDIO
    TITLE "9:cjc113_0333"
    INDEX 01 00:44:56
  TRACK 43 AUDIO
    TITLE "0:"
    INDEX 01 00:47:21
  TRACK 44 AUDIO
    TITLE "10:cjc113_0334"
    INDEX 01 00:47:44
  TRACK 45 AUDIO
    TITLE "0:"
    INDEX 01 00:50:21
  TRACK 46 AUDIO
    TITLE "8:cjc113_0335"
    INDEX 01 00:50:66
  TRACK 47 AUDIO
    TITLE "0:"
    INDEX 01 00:51:71
  TRACK 48 AUDIO
    TITLE "9:cjc113_0336"
    INDEX 01 00:52:20
  TRACK 49 AUDIO
    TITLE "0:"
    INDEX 01 00:54:64
  TRACK 50 AUDIO
    TITLE "10:cjc113_0337"
    INDEX 01 00:55:10
  TRACK 51 AUDIO
    TITLE "0:"
    INDEX 01 00:57:50
  TRACK 52 AUDIO
    TITLE "8:cjc113_0338"
    INDEX 01 00:58:20
  TRACK 53 AUDIO
    TITLE "0:"
    INDEX 01 00:59:34
  TRACK 54 AUDIO
    TITLE "9:cjc113_0339"
    INDEX 01 00:59:57
  TRACK 55 AUDIO
    TITLE "0:"
    INDEX 01 01:02:34
  TRACK 56 AUDIO
    TITLE "10:cjc113_0340"
    INDEX 01 01:02:55
  TRACK 57 AUDIO
    TITLE "0:"
    INDEX 01 01:05:50
  TRACK 58 AUDIO
    TITLE "8:cjc113_0341"
    INDEX 01 01:06:20
  TRACK 59 AUDIO
    TITLE "0:"
    INDEX 01 01:07:17
  TRACK 60 AUDIO
    TITLE "9:cjc113_0342"
    INDEX 01 01:07:39
  TRACK 61 AUDIO
    TITLE "0:"
    INDEX 01 01:10:12
  TRACK 62 AUDIO
    TITLE "10:cjc113_0343"
    INDEX 01 01:10:30
  TRACK 63 AUDIO
    TITLE "0:"
    INDEX 01 01:13:32
  TRACK 64 AUDIO
    TITLE "10:cjc113_0344"
    INDEX 01 01:14:08
  TRACK 65 AUDIO
    TITLE "0:"
    INDEX 01 01:16:63
  TRACK 66 AUDIO
    TITLE "8:cjc113_0345"
    INDEX 01 01:17:39
  TRACK 67 AUDIO
    TITLE "0:"
    INDEX 01 01:18:54
  TRACK 68 AUDIO
    TITLE "9:cjc113_0346"
    INDEX 01 01:18:74
  TRACK 69 AUDIO
    TITLE "0:"
    INDEX 01 01:21:53
  TRACK 70 AUDIO
    TITLE "10:cjc113_0347"
    INDEX 01 01:21:74
  TRACK 71 AUDIO
    TITLE "0:"
    INDEX 01 01:24:53
  TRACK 72 AUDIO
    TITLE "8:cjc113_0348"
    INDEX 01 01:25:23
  TRACK 73 AUDIO
    TITLE "0:"
    INDEX 01 01:26:44
  TRACK 74 AUDIO
    TITLE "9:cjc113_0349"
    INDEX 01 01:26:68
  TRACK 75 AUDIO
    TITLE "0:"
    INDEX 01 01:29:39
  TRACK 76 AUDIO
    TITLE "10:cjc113_0350"
    INDEX 01 01:29:60
  TRACK 77 AUDIO
    TITLE "0:"
    INDEX 01 01:32:27
